<svg width="213" height="213" viewBox="0 0 213 213" fill="none" xmlns="http://www.w3.org/2000/svg">
<path d="M213 106.492C212.981 130.736 204.701 154.249 189.527 173.152C174.352 192.055 153.19 205.218 129.531 210.469C105.873 215.721 81.1313 212.747 59.3895 202.038C37.6477 191.33 20.2045 173.526 9.93792 151.565C1.72709 133.896 -1.4893 114.315 0.637868 94.9465C2.76503 75.5781 10.1545 57.1624 22.0042 41.6984C25.5038 37.1436 29.3606 32.875 33.5381 28.9333C52.6946 10.9044 77.8438 0.607054 104.139 0.0259984C130.433 -0.555057 156.012 8.62127 175.946 25.7864C187.57 35.7738 196.899 48.1563 203.294 62.0859C209.69 76.0156 213 91.1634 213 106.492Z" fill="#E0F1FA"/>
<path d="M213 106.49C213.016 118.01 211.072 129.369 207.413 140.292C205.8 137.597 206.741 129.955 206.741 129.955C203.269 133.687 200.765 138.214 199.449 143.139C197.127 151.531 195.352 153.129 194.61 152.596C193.868 152.064 194.416 145.108 192.997 142.784C191.577 140.46 193.174 137.265 190.319 136.91C187.464 136.555 188.706 131.907 183.56 131.552C178.414 131.197 178.027 130.132 173.752 129.067C170.397 128.244 169.574 124.661 169.364 123.144C169.354 123.067 169.325 122.993 169.279 122.929C169.234 122.866 169.173 122.815 169.102 122.781C169.031 122.748 168.953 122.732 168.875 122.736C168.797 122.741 168.721 122.764 168.655 122.806C167.703 123.451 166.106 125.162 166.622 129.261C167.332 134.974 168.235 135.845 171.252 134.425C174.268 133.005 177.317 131.568 178.753 136.749C180.189 141.929 174.494 144.334 170.139 148.271C165.783 152.209 158.718 153.629 157.653 150.934C156.128 147.226 154.092 143.75 151.604 140.606C148.926 137.378 148.216 129.309 147.329 128.131C146.442 126.953 140.731 127.776 144.103 130.988C147.474 134.199 149.458 145.415 151.943 148.078C154.427 150.74 153.362 156.292 159.056 157.179C164.751 158.067 172.607 146.302 168.509 156.098C164.412 165.894 152.765 174.996 149.91 178.562C147.055 182.129 150.62 189.455 147.781 190.504C144.941 191.553 140.296 195.346 139.037 198.573C137.779 201.801 126.939 206.045 124.616 208.014C122.293 209.983 116.55 208.546 114.292 206.223C112.033 203.899 104.613 199.767 108.404 193.57C112.195 187.373 108.404 180.563 105.726 176.819C103.048 173.075 107.517 169.154 104.307 169.864C101.096 170.574 100.387 168.072 97.1765 165.942C93.9663 163.812 81.0451 167.201 74.2054 165.942C67.3657 164.683 63.6716 149.175 61.8971 142.72C60.1227 136.265 72.5116 128.486 73.0278 124.968C73.544 121.45 75.996 118.658 81.5613 118.093C87.1266 117.528 101.871 114.043 105.194 114.365C108.517 114.688 114.873 125.21 118.212 125.291C121.551 125.371 121.438 123.193 122.809 121.644C124.18 120.094 134.505 125.501 137.15 124.403C139.796 123.306 141.989 123.951 144.296 122.144C146.603 120.336 146.313 117.109 145.909 114.301C145.506 111.493 143.812 113.607 141.07 114.462C139.844 114.887 138.527 114.975 137.256 114.717C135.984 114.459 134.806 113.863 133.843 112.994C131.988 111.283 133.843 109.96 134.94 106.845C136.037 103.73 138.812 104.828 141.393 103.037C143.974 101.245 149.087 105.36 153.281 103.585C157.476 101.81 147.764 99.228 146.522 96.2748C145.28 93.3215 137.699 92.6276 135.23 95.9359C132.762 99.2441 134.521 99.1634 133.617 101.826C132.714 104.489 134.246 104.521 133.149 105.715C132.053 106.91 131.246 105.102 128.907 106.426C126.568 107.749 129.488 112.477 126.649 114.333C123.809 116.189 123.196 109.782 122.89 106.99C122.583 104.198 119.841 102.488 117.712 101.261C115.582 100.035 111.969 93.725 109.049 96.0811C106.129 98.4372 110.824 100.099 111.969 101.697C113.114 103.295 116.889 104.521 118.518 105.054C119.047 105.178 119.509 105.499 119.809 105.952C120.108 106.405 120.224 106.955 120.131 107.491C120.131 107.926 119.228 107.846 118.292 107.749C117.357 107.652 116.082 107.216 116.873 108.895C117.663 110.573 116.695 111.154 116.034 112.219C115.373 113.284 114.179 112.881 114.647 110.976C115.115 109.072 112.227 105.764 109.485 104.796C106.742 103.827 105.452 98.1145 103.032 98.5341C100.612 98.9536 100.274 100.003 96.5796 100.293C95.6763 100.293 94.7568 99.8574 94.789 100.293C94.8266 100.441 94.8266 100.597 94.789 100.745C94.1922 105.683 91.5628 105.974 89.256 107.587C86.9492 109.201 87.6428 112.09 85.7555 114.043C83.8681 115.995 69.6241 117.27 73.9634 110.121C78.3028 102.972 70.9146 103.15 76.0121 100.438C81.1096 97.7272 86.3523 100.293 87.2073 96.0811C88.0622 91.8691 84.1585 95.6292 82.5614 91.2397C80.9644 86.8502 89.9819 85.2526 92.9339 83.6549C95.886 82.0572 94.789 78.1357 97.5636 79.0072C100.338 79.8786 102.242 76.1507 100.241 73.843C98.2411 71.5352 102.935 67.065 104.097 68.5175C106.016 70.9543 102.661 72.9554 103.226 77.2481C103.629 80.4757 105.839 79.7334 109.049 80.0239C112.259 80.3144 119.535 73.5686 121.696 70.8575C123.858 68.1463 123.164 66.4841 125.487 65.9031C127.81 65.3221 130.585 62.2559 128.826 60.8035C127.068 59.3511 124.309 61.675 121.132 62.4173C117.954 63.1597 118.647 61.2554 118.067 58.2053C117.486 55.1553 119.228 55.2844 121.293 53.1219C123.358 50.9594 124.342 49.039 122.18 49.3294C120.653 49.607 119.203 50.2049 117.924 51.0839C116.645 51.9629 115.566 53.103 114.76 54.429C112.275 57.8987 113.147 59.4963 114.308 62.9983C114.905 64.838 115.695 67.1619 114.518 68.8886C113.34 70.6154 113.421 71.5191 111.291 73.1329C107.807 75.8764 106.807 71.8903 106.92 69.1791C107.049 65.2899 105.436 65.1446 104.194 64.9994C102.952 64.8541 101.145 67.3394 98.4186 68.227C94.047 69.5826 95.8214 64.2732 95.031 61.0617C94.2406 57.8503 104.613 53.6867 106.581 46.8442C107.496 44.5008 108.885 42.3721 110.662 40.5918C112.438 38.8116 114.564 37.4184 116.905 36.4998C121.228 35.112 125.681 37.226 128.746 37.6133C135.198 38.4202 138.424 47.2961 141.973 47.2961C145.522 47.2961 156.953 39.7454 159.195 34.8072C160.808 31.2084 173.976 26.0658 175.889 25.7275C187.505 35.7329 196.976 48.1084 203.355 62.0524C209.734 75.9963 213.024 91.1552 213 106.49Z" fill="url(#paint0_linear_5_762)"/>
<path d="M82.0771 66.4364C83.2546 66.033 85.1098 67.2917 85.3033 67.2917C85.4969 67.2917 84.8839 73.2628 86.5777 74.7797C88.2715 76.2967 88.336 79.6211 89.433 78.911C90.5299 78.201 92.4657 78.4915 92.0462 80.1859C91.6268 81.8804 87.4972 82.9133 86.2551 83.5104C85.013 84.1075 82.3674 85.3178 81.4157 85.9795C80.4639 86.6411 82.8514 81.9288 83.9967 81.1381C84.6903 80.6862 82.3835 79.8793 82.3835 78.443C82.489 77.2906 82.7439 76.1569 83.1417 75.0702C83.2546 74.4247 80.6414 72.2461 80.0122 71.1164C79.3831 69.9868 80.8833 66.8722 82.0771 66.4364Z" fill="url(#paint1_linear_5_762)"/>
<path d="M77.7058 75.0377C78.1898 74.6666 78.8996 73.9726 79.6255 74.2631C80.3514 74.5536 80.6579 75.8769 80.5934 76.6192C80.5288 77.3616 79.69 77.9748 79.69 78.8463C79.69 79.7177 80.3998 81.6381 79.2706 81.9609C78.1414 82.2837 76.1572 82.3159 75.7378 83.0906C75.3184 83.8652 74.1247 84.0588 73.9311 83.2519C73.7884 82.8314 73.758 82.3809 73.8429 81.945C73.9278 81.5091 74.125 81.1029 74.415 80.7667C75.1571 80.0243 74.5118 79.7823 74.2537 78.6849C74.1369 78.3165 74.1233 77.9232 74.2143 77.5476C74.3053 77.1721 74.4975 76.8286 74.7699 76.5547C75.2216 76.0383 75.4797 77.523 76.1895 77.0066C76.6288 76.3018 77.1367 75.6424 77.7058 75.0377Z" fill="url(#paint2_linear_5_762)"/>
<path d="M154.588 17.6981C154.588 17.6981 151.991 19.909 150.991 19.7961C149.99 19.6831 148.006 21.7972 148.006 22.8946C148.006 23.9919 148.103 26.7031 148.006 28.4944C147.909 30.2857 147.393 31.8995 149.49 32.3998C151.587 32.9001 155.298 34.8043 155.588 33.8038C155.878 32.8032 151.571 30.9958 151.733 27.7037C151.894 24.4115 152.297 21.7972 154.394 20.9096C156.491 20.022 156.991 19.199 156.088 18.4082C155.185 17.6175 156.04 16.6008 154.588 17.6981Z" fill="url(#paint3_linear_5_762)"/>
<path d="M82.0932 9.67875C79.9316 13.5196 72.5273 18.5546 71.3174 22.5891C70.1076 26.6236 68.2524 37.2423 61.6386 41.3414C55.0247 45.4404 42.3777 49.7492 39.4902 55.7525C36.6027 61.7558 37.3447 67.0491 35.1831 66.3067C33.0215 65.5644 26.2786 58.3992 28.9403 50.7014C31.6019 43.0036 36.8608 42.6324 36.6188 36.1772C36.4091 29.9318 33.7152 28.9636 33.3925 28.8829C44.2767 18.638 57.2001 10.8072 71.3174 5.90247C71.3174 5.90247 84.2548 5.82178 82.0932 9.67875Z" fill="url(#paint4_linear_5_762)"/>
<path d="M16.0353 73.0996C16.0353 75.2621 22.762 79.5548 19.6487 83.7668C16.5353 87.9788 9.96986 85.1062 9.08263 89.9153C8.1954 94.7244 10.6958 98.0973 7.87278 100.018C5.13577 102.028 2.50799 104.183 0.000662734 106.473C-0.0418786 83.023 7.69713 60.2223 22.0039 41.6468L22.4878 41.437C22.4878 41.437 23.488 48.1343 23.488 49.0864C23.488 50.0385 21.3263 58.7691 19.8907 60.1409C18.455 61.5126 12.0508 63.8365 12.0508 66.4347C12.0508 69.0329 16.3579 64.5627 16.616 66.4347C16.8741 68.3067 16.0353 70.9371 16.0353 73.0996Z" fill="url(#paint5_linear_5_762)"/>
<path d="M60.5581 49.8771C60.0258 51.2488 61.3324 53.4758 60.5581 54.4602C59.7838 55.4447 60.3484 56.074 62.6552 55.9127C64.962 55.7513 64.7523 58.2688 66.0589 57.2844C67.355 56.1917 68.5582 54.9934 69.6562 53.7018C71.3662 51.9104 72.8018 49.0863 70.9629 48.699C69.1239 48.3117 67.5591 49.2961 66.0267 49.2961C64.4942 49.2961 62.4455 48.2471 61.7196 48.6022C61.224 48.9139 60.8225 49.3546 60.5581 49.8771Z" fill="url(#paint6_linear_5_762)"/>
<path d="M42.2647 184.906C43.0197 187.024 43.1042 189.323 42.5067 191.49H42.3615C28.4615 181.025 17.3302 167.319 9.93742 151.565C9.92443 151.068 9.80911 150.579 9.59867 150.129C9.54733 150.065 9.52358 149.983 9.53266 149.901C9.54173 149.819 9.58289 149.745 9.64706 149.693C9.71123 149.642 9.79318 149.618 9.87486 149.627C9.95654 149.636 10.0313 149.677 10.0826 149.742C12.2775 152.045 14.6216 154.201 17.0998 156.197C20.2292 158.504 24.0201 159.134 25.4881 164.363C26.956 169.591 27.9884 168.349 32.1826 169.398C36.3768 170.447 44.9909 172.125 44.9909 176.95C44.9909 181.775 41.0871 181.13 42.2647 184.906Z" fill="url(#paint7_linear_5_762)"/>
<path d="M152.603 188.794C152.603 188.794 159.395 186.647 160.121 184.969C160.847 183.291 162.363 184.646 160.992 186.873C159.257 189.164 157.307 191.282 155.168 193.199C155.168 193.199 152.055 197.912 150.216 197.428C148.377 196.943 151.329 194.313 151.652 192.07C151.974 189.827 151.41 190.004 152.603 188.794Z" fill="url(#paint8_linear_5_762)"/>
<defs>
<linearGradient id="paint0_linear_5_762" x1="61.7234" y1="117.334" x2="213" y2="117.334" gradientUnits="userSpaceOnUse">
<stop stop-color="#085078"/>
<stop offset="1" stop-color="#85D8CE"/>
</linearGradient>
<linearGradient id="paint1_linear_5_762" x1="79.8638" y1="76.1998" x2="92.1048" y2="76.1998" gradientUnits="userSpaceOnUse">
<stop stop-color="#085078"/>
<stop offset="1" stop-color="#85D8CE"/>
</linearGradient>
<linearGradient id="paint2_linear_5_762" x1="73.7959" y1="78.9828" x2="80.6017" y2="78.9828" gradientUnits="userSpaceOnUse">
<stop stop-color="#085078"/>
<stop offset="1" stop-color="#85D8CE"/>
</linearGradient>
<linearGradient id="paint3_linear_5_762" x1="147.88" y1="25.6537" x2="156.518" y2="25.6537" gradientUnits="userSpaceOnUse">
<stop stop-color="#085078"/>
<stop offset="1" stop-color="#85D8CE"/>
</linearGradient>
<linearGradient id="paint4_linear_5_762" x1="28.3276" y1="36.1394" x2="82.3367" y2="36.1394" gradientUnits="userSpaceOnUse">
<stop stop-color="#085078"/>
<stop offset="1" stop-color="#85D8CE"/>
</linearGradient>
<linearGradient id="paint5_linear_5_762" x1="0.000488281" y1="73.9549" x2="23.488" y2="73.9549" gradientUnits="userSpaceOnUse">
<stop stop-color="#085078"/>
<stop offset="1" stop-color="#85D8CE"/>
</linearGradient>
<linearGradient id="paint6_linear_5_762" x1="60.2314" y1="53.0211" x2="71.8215" y2="53.0211" gradientUnits="userSpaceOnUse">
<stop stop-color="#085078"/>
<stop offset="1" stop-color="#85D8CE"/>
</linearGradient>
<linearGradient id="paint7_linear_5_762" x1="9.53076" y1="170.558" x2="44.9909" y2="170.558" gradientUnits="userSpaceOnUse">
<stop stop-color="#085078"/>
<stop offset="1" stop-color="#85D8CE"/>
</linearGradient>
<linearGradient id="paint8_linear_5_762" x1="149.617" y1="190.841" x2="161.546" y2="190.841" gradientUnits="userSpaceOnUse">
<stop stop-color="#085078"/>
<stop offset="1" stop-color="#85D8CE"/>
</linearGradient>
</defs>
</svg>
