<svg width="213" height="213" viewBox="0 0 213 213" fill="none" xmlns="http://www.w3.org/2000/svg">
<path d="M213 106.662C213.023 119.982 210.538 133.188 205.674 145.592C197.843 165.471 184.194 182.535 166.507 194.559C148.819 206.582 127.912 213.009 106.512 213C47.6767 213 -0.718096 165.388 0.00806694 106.694C0.395354 74.561 16.145 44.1351 36.0096 27.0295C51.7784 13.2399 71.2331 4.33839 91.9921 1.41471C112.751 -1.50897 133.914 1.67201 152.89 10.5683C169.903 18.7956 184.413 31.3994 194.926 47.0826C204.569 61.4369 210.552 77.9252 212.354 95.1134C212.784 98.948 213 102.804 213 106.662Z" fill="#E0F1FA"/>
<path d="M193.038 58.2449C190.343 55.845 189.44 56.151 186.745 52.2531C184.05 48.3553 185.244 45.0694 181.032 44.7634C176.82 44.4574 175.933 41.4615 175.336 37.5797C174.739 33.698 165.654 29.5263 162.426 30.09C159.199 30.6538 140.222 22.8902 135.122 21.0863C130.023 19.2823 127.054 10.3268 123.407 9.71478C119.76 9.10272 109.61 10.6007 103.607 16.9146C97.604 23.2285 96.3937 13.3066 91.004 15.1106C85.6143 16.9146 75.69 26.1921 71.4944 33.2309C67.2988 40.2696 68.267 43.5715 65.1849 46.2613C62.1027 48.9512 57.6812 42.0736 56.5677 39.6736C55.4543 37.2737 42.6899 39.3676 42.0445 36.0657C41.399 32.7638 57.9555 25.5962 56.4386 20.7963C54.9218 15.9965 37.305 26.2673 35.6882 27.3219C56.2527 8.99167 83.5132 -1.04689 111.061 0.0866353C138.608 1.22016 164.631 13.0156 183.614 32.9731C182.962 34.8351 182.823 36.8376 183.211 38.7716C183.872 41.7353 188.859 45.3755 192.231 50.3686C195.604 55.3618 195.733 60.7254 193.038 58.2449Z" fill="url(#paint0_linear_5_763)"/>
<path d="M205.56 145.771C195.728 170.308 177.192 190.374 153.487 202.145C153.464 202.156 153.44 202.159 153.415 202.154C153.391 202.149 153.37 202.137 153.353 202.119C153.337 202.101 153.327 202.078 153.325 202.053C153.322 202.029 153.328 202.005 153.341 201.984C155.091 199.423 156.578 196.692 157.779 193.834C159.28 189.936 156.165 192.787 151.034 192.481C145.902 192.175 142.465 183.042 143.369 178.564C144.272 174.087 149.065 168.369 148.629 166.13C148.194 163.891 148.323 164.181 146.515 163.424C144.708 162.667 144.434 164.471 143.514 166.645C142.594 168.82 138.576 165.292 134.816 163.955C131.056 162.619 131.363 161.104 131.072 160.058C130.782 159.011 124.908 160.943 122.358 158.994C119.809 157.046 116.21 158.254 113.209 158.254C110.207 158.254 104.495 152.713 101.509 151.972C100.991 151.924 100.491 151.761 100.044 151.494C99.5978 151.228 99.2167 150.865 98.9289 150.433C98.6411 150 98.4539 149.509 98.381 148.995C98.3082 148.481 98.3515 147.957 98.5079 147.462C98.8145 145.529 93.2634 138.007 91.456 136.654C89.6487 135.301 89.1807 133.207 88.5675 130.517C87.9543 127.828 86.3406 127.296 85.0012 127.457C83.6619 127.618 84.8399 130.147 85.8888 131.951C87.134 134.138 88.1869 136.428 89.0355 138.796C90.6492 142.839 92.6824 140.407 91.6013 143.773C91.3592 144.498 87.8413 142.582 86.502 139.586C84.3406 135.15 82.4334 130.595 80.7895 125.943C79.2414 121.599 77.0138 117.527 74.1895 113.879C71.4946 110.142 75.6902 102.202 77.1909 98.8996C78.6917 95.5977 78.0946 91.2649 77.1909 88.269C76.0647 85.1795 75.7048 81.8636 76.142 78.6049C76.7391 74.6909 71.7851 69.9072 70.5909 67.5072C69.3968 65.1073 68.0413 62.5785 65.0398 63.0134C62.0383 63.4483 57.8266 64.9624 56.0354 64.9624C54.2442 64.9624 50.0324 63.9315 49.4354 62.2725C48.8383 60.6135 55.5835 63.0134 58.8755 62.2725C62.1674 61.5316 60.4892 56.8767 62.6354 53.8808C64.7816 50.8849 69.187 48.7588 71.3332 46.987C74.1249 44.716 72.5919 46.1656 77.2232 46.069C81.8545 45.9723 82.4677 52.0285 85.2917 53.3976C88.1157 54.7667 92.9568 53.2848 96.9426 49.6125C100.928 45.9401 105.447 46.3911 108.142 43.5563C110.837 40.7215 116.21 39.8839 117.001 44.8126C117.792 49.7413 122.455 52.3506 128.539 55.8136C134.622 59.2766 134.735 57.5854 135.236 63.3517C135.736 69.1179 136.623 66.7985 134.526 67.6522C132.428 68.5059 128.071 66.7019 126.231 62.0953C124.392 57.4887 120.664 58.3263 120.987 63.3517C121.309 68.377 121.406 67.765 117.001 70.7931C112.595 73.8212 107.867 76.4466 113.951 77.7029C120.035 78.9593 127.183 89.7509 131.169 89.7509C135.155 89.7509 131.476 82.0035 130.217 76.7687C128.958 71.534 128.442 69.7461 132.638 70.1649C136.833 70.5837 138.737 70.487 141.981 72.9997C145.224 75.5124 149.969 74.1433 152.599 75.9312C155.229 77.719 152.599 80.1189 151.534 83.4692C150.469 86.8194 147.129 86.6906 148.5 88.9294C149.872 91.1683 155.407 89.3482 154.955 91.9736C154.503 94.5991 150.324 92.0703 149.597 97.0956C148.871 102.121 143.82 108.628 143.595 112.397C143.369 116.166 143.82 114.91 142.336 117.954C140.851 120.998 135.3 124.397 137.495 127.377C139.689 130.356 142.207 135.881 141.384 138.281C140.561 140.681 138.544 136.67 136.849 133.046C135.155 129.422 118.26 132.08 113.886 134.303C109.513 136.525 111.805 142.485 113.886 149.089C115.968 155.693 123.052 145.61 127.603 144.965C132.153 144.321 127.603 154.017 128.039 155.483C128.474 156.949 133.186 154.517 136.51 154.984C139.835 155.451 137.93 156.788 137.382 160.847C136.833 164.906 139.657 164.068 141.723 164.519C143.788 164.97 143.675 162.908 145.128 162.2C146.58 161.491 149.339 162.023 150.227 158.978C151.114 155.934 160.296 155.999 166.009 152.697C171.721 149.395 174.545 154.307 180.096 151.489C185.647 148.67 187.745 151.956 190.295 152.697C192.845 153.438 204.108 146.657 205.593 145.771C205.692 145.528 205.577 145.722 205.56 145.771Z" fill="url(#paint1_linear_5_763)"/>
<path d="M117.356 36.644C117.63 32.7945 126.376 28.4939 129.797 32.1341C133.218 35.7742 143.32 37.4977 144.32 40.0748C145.321 42.6519 145.821 48.8531 147.112 51.6395C148.403 54.426 155.052 62.1412 148.613 61.0621C142.174 59.9829 130.862 47.4034 125.424 47.1618C119.986 46.9202 117.146 39.6399 117.356 36.644Z" fill="url(#paint2_linear_5_763)"/>
<path d="M150.904 38.6106C150.904 38.6106 153.567 38.2884 154.325 39.3515C155.084 40.4145 156.552 42.9755 155.487 43.7165C154.837 44.0671 154.09 44.194 153.36 44.0775C152.631 43.9611 151.961 43.6077 151.453 43.0722C150.807 42.0091 149.097 40.0924 150.904 38.6106Z" fill="url(#paint3_linear_5_763)"/>
<path d="M135.155 142.468C135.155 142.468 132.637 144.482 134.671 144.385C136.704 144.288 138.124 142.565 138.963 142.774C139.802 142.984 142.352 143.145 143.804 143.386C145.257 143.628 146.693 143.161 146.338 144.353C145.983 145.545 146.693 145.078 149.097 144.353C151.502 143.628 153.164 141.566 150.291 141.711C146.031 141.937 144.676 140.729 142.368 140.519C139.819 140.402 137.297 141.083 135.155 142.468Z" fill="url(#paint4_linear_5_763)"/>
<path d="M154.035 142.869C153.648 143.771 155.342 144.834 154.035 145.172C152.728 145.51 149.517 147.443 151.84 147.201C154.164 146.96 157.166 146.267 157.408 145.172C157.65 144.077 159.021 143.32 160.167 142.869C161.313 142.418 162.216 140.372 160.167 140.549C158.783 140.723 157.443 141.149 156.213 141.806C155.197 142.112 154.81 140.871 154.035 142.869Z" fill="url(#paint5_linear_5_763)"/>
<defs>
<linearGradient id="paint0_linear_5_763" x1="35.6882" y1="29.4353" x2="194.924" y2="29.4353" gradientUnits="userSpaceOnUse">
<stop stop-color="#085078"/>
<stop offset="1" stop-color="#85D8CE"/>
</linearGradient>
<linearGradient id="paint1_linear_5_763" x1="49.3982" y1="121.714" x2="205.633" y2="121.714" gradientUnits="userSpaceOnUse">
<stop stop-color="#085078"/>
<stop offset="1" stop-color="#85D8CE"/>
</linearGradient>
<linearGradient id="paint2_linear_5_763" x1="117.345" y1="45.9608" x2="151.378" y2="45.9608" gradientUnits="userSpaceOnUse">
<stop stop-color="#085078"/>
<stop offset="1" stop-color="#85D8CE"/>
</linearGradient>
<linearGradient id="paint3_linear_5_763" x1="150.099" y1="41.3422" x2="155.861" y2="41.3422" gradientUnits="userSpaceOnUse">
<stop stop-color="#085078"/>
<stop offset="1" stop-color="#85D8CE"/>
</linearGradient>
<linearGradient id="paint4_linear_5_763" x1="133.877" y1="142.794" x2="151.81" y2="142.794" gradientUnits="userSpaceOnUse">
<stop stop-color="#085078"/>
<stop offset="1" stop-color="#85D8CE"/>
</linearGradient>
<linearGradient id="paint5_linear_5_763" x1="151.019" y1="143.88" x2="161.388" y2="143.88" gradientUnits="userSpaceOnUse">
<stop stop-color="#085078"/>
<stop offset="1" stop-color="#85D8CE"/>
</linearGradient>
</defs>
</svg>
