<svg width="213" height="214" viewBox="0 0 213 214" fill="none" xmlns="http://www.w3.org/2000/svg">
<path d="M213 106.511C212.975 122.791 209.216 138.849 202.013 153.449C194.81 168.05 184.354 180.804 171.449 190.732C158.545 200.661 143.535 207.498 127.574 210.72C111.613 213.941 95.1251 213.461 79.3789 209.315C63.6326 205.169 49.0468 197.468 36.7428 186.805C24.4388 176.142 14.7442 162.8 8.40422 147.804C2.06429 132.809 -0.752129 116.56 0.171473 100.306C1.09508 84.0527 5.7341 68.2271 13.7319 54.0463C23.0188 37.635 36.498 23.9837 52.7914 14.4879C69.0848 4.99209 87.6081 -0.00757558 106.468 8.61574e-06C109.356 8.61574e-06 112.228 0.112941 115.068 0.338806C141.751 2.49207 166.643 14.6125 184.791 34.2872C202.938 53.9619 213.01 79.7477 213 106.511Z" fill="#E0F1FA"/>
<path d="M85.5391 26.2336C83.9255 31.9609 70.5807 32.5901 66.7725 35.7683C62.9643 38.9466 65.8205 42.1409 65.4977 44.9965C65.175 47.8521 62.2705 49.4493 59.7693 52.3049C57.2682 55.1604 54.0409 52.3049 51.3946 50.6915C48.7482 49.0782 46.4245 49.3686 45.4725 54.1279C45.2991 54.8631 45.2822 55.6266 45.423 56.3687C45.5638 57.1109 45.859 57.8152 46.2897 58.4358C46.7203 59.0565 47.2766 59.5798 47.9225 59.9716C48.5685 60.3634 49.2896 60.6151 50.0391 60.7103C53.4277 61.4685 54.1055 65.7922 51.8302 68.2283C50.0714 70.0998 44.0686 67.6314 42.6002 60.1617C42.0839 57.5159 44.4559 40.8019 36.8718 42.6733C25.9152 45.4321 18.4925 80.1347 12.6834 77.7469C7.84248 75.7464 13.3288 55.5315 13.7323 54.0956C23.0129 37.6754 36.4894 24.0143 52.7833 14.5098C69.0771 5.0052 87.6037 -0.00176176 106.468 0.000977686C109.356 0.000977686 112.229 0.11391 115.069 0.339775V0.517241C115.069 0.517241 117.731 0.807638 112.842 6.84146C107.953 12.8753 89.3473 9.69704 85.5391 12.5688C81.7309 15.4405 87.1205 20.5063 85.5391 26.2336Z" fill="url(#paint0_linear_5_760)"/>
<path d="M99.4973 65.3417C99.416 65.3417 99.338 65.3094 99.2805 65.2519C99.223 65.1944 99.1907 65.1164 99.1907 65.0351C99.1907 64.9538 99.223 64.8759 99.2805 64.8184C99.338 64.7609 99.416 64.7286 99.4973 64.7286C101.385 64.2769 104.661 63.7283 105.339 65.0835C106.307 67.0034 105.339 70.6011 108.695 68.4392C112.051 66.2774 114.698 66.6646 118.538 69.1007C122.379 71.5368 124.25 75.3443 129.091 77.8288C142 84.4918 133.932 84.7499 133.932 84.7499C133.932 84.7499 129.93 85.3307 123.75 79.071C121.41 76.6994 115.682 82.1202 113.294 79.4744C110.906 76.8285 112.568 74.9248 107.533 73.2308C102.499 71.5368 101.256 70.6334 102.402 68.2295C103.257 66.6162 101.046 65.7773 99.4973 65.3417Z" fill="url(#paint1_linear_5_760)"/>
<path d="M73.2592 55.1761C71.5344 57.2432 69.4452 58.9766 67.0951 60.2903C63.3515 62.3231 63.8678 63.7105 63.1417 64.8399C62.4155 65.9692 59.3819 65.1625 59.5433 66.9533C59.7046 68.7441 58.2362 70.18 60.9955 72.0676C63.7549 73.9551 71.0646 74.181 72.4524 72.0676C73.8401 69.9541 72.049 69.6314 73.2592 67.8406C74.4694 66.0499 76.4865 65.1464 76.8253 64.3881C77.1642 63.6299 74.2274 60.7904 74.8083 59.403C75.3892 58.0155 76.8899 56.5635 76.8576 55.7569C76.8253 54.9502 73.2592 55.1761 73.2592 55.1761Z" fill="url(#paint2_linear_5_760)"/>
<path d="M37.8558 68.5686C39.1662 70.6284 40.2483 72.8247 41.0831 75.1187C42.1075 77.3452 43.6119 79.3175 45.4883 80.8944C47.014 81.8573 48.6366 82.6575 50.3292 83.2821C50.3292 83.2821 52.7174 81.814 53.0885 80.3459C53.4597 78.8778 52.3462 77.216 51.4749 75.9254C50.6035 74.6347 46.2144 76.6675 45.5367 75.9254C44.5262 74.3908 43.855 72.6582 43.5681 70.8434C43.0194 68.3912 39.3403 66.1809 37.8719 65.8099C36.4035 65.4388 37.8558 68.5686 37.8558 68.5686Z" fill="url(#paint3_linear_5_760)"/>
<path d="M55.8154 83.2809C57.3261 82.0661 59.2185 81.4258 61.1566 81.474C62.2538 81.845 60.1561 82.9744 63.1413 83.3293C66.1266 83.6842 68.8859 82.1677 71.0966 82.3774C73.3073 82.5872 75.9375 84.5393 76.8573 84.8458C77.777 85.1523 77.1154 86.9915 76.8573 87.3626C76.5991 87.7337 74.0334 86.6366 69.0634 87.3626C64.0934 88.0886 57.1063 85.0878 55.8154 84.8458C54.5245 84.6038 55.8154 83.2809 55.8154 83.2809Z" fill="url(#paint4_linear_5_760)"/>
<path d="M82.8441 81.4727C84.7347 79.4709 87.2725 78.2022 90.0087 77.8911H94.9787C95.1747 78.1934 95.2758 78.5473 95.2691 78.9075C95.2691 79.3592 89.2825 81.3114 89.0566 81.4727C87.3352 81.9409 85.5827 82.286 83.8123 82.5052C82.8118 82.4729 82.8441 81.4727 82.8441 81.4727Z" fill="url(#paint5_linear_5_760)"/>
<path d="M71.9684 113.273C71.2935 111.717 71.1939 109.972 71.6876 108.349C72.1813 106.727 73.236 105.333 74.6632 104.416C77.8905 102.383 81.6341 100.834 84.9098 97.3819C89.4925 92.542 94.5916 84.2172 105.451 84.4753C105.903 84.4779 106.343 84.6137 106.718 84.8656C107.092 85.1175 107.384 85.4743 107.556 85.8913C107.728 86.3083 107.774 86.7669 107.686 87.2096C107.599 87.6522 107.383 88.0593 107.065 88.3796C105.597 89.7993 104.354 90.5737 106.371 92.0902C109.598 94.4941 116.053 93.7035 117.893 89.9445C118.567 88.5747 119.107 87.143 119.506 85.6692C119.561 85.4701 119.671 85.2908 119.825 85.1525C119.978 85.0141 120.167 84.9226 120.371 84.8887C120.575 84.8547 120.784 84.8798 120.974 84.9609C121.164 85.0421 121.326 85.1759 121.443 85.3465C122.894 87.2412 123.963 89.4002 124.589 91.703C125.009 94.7361 126.59 97.1561 130.366 102.286C134.142 107.417 140.048 118.162 134.142 124.421C128.639 130.326 129.898 131.891 128.672 133.02C127.752 133.875 124.993 133.02 122.863 134.779C122.642 134.981 122.354 135.092 122.056 135.092C121.757 135.092 121.469 134.981 121.249 134.779C120.471 133.988 119.488 133.43 118.411 133.168C117.333 132.905 116.203 132.949 115.149 133.294C111.922 134.085 111.115 128.051 110.922 125.018C110.916 124.894 110.872 124.775 110.796 124.677C110.72 124.579 110.615 124.508 110.496 124.472C110.377 124.437 110.25 124.439 110.133 124.479C110.015 124.519 109.913 124.595 109.841 124.695L108.582 126.406C108.456 126.577 108.29 126.715 108.098 126.806C107.907 126.898 107.695 126.941 107.483 126.931C107.271 126.922 107.064 126.86 106.881 126.751C106.699 126.643 106.546 126.491 106.436 126.309C104.645 123.211 99.723 118.032 89.1214 126.309C88.0887 126.099 82.7475 126.309 80.7466 129.132C78.7457 131.955 76.5512 129.552 76.1316 128.083C75.7121 126.615 75.5023 120.856 74.518 118.968C74.0339 118 72.9528 115.548 71.9684 113.273Z" fill="url(#paint6_linear_5_760)"/>
<path d="M119.877 139.553C119.838 139.418 119.836 139.275 119.873 139.139C119.909 139.003 119.981 138.879 120.083 138.781C120.184 138.683 120.31 138.615 120.447 138.583C120.584 138.551 120.728 138.558 120.862 138.602C121.489 138.902 122.175 139.058 122.871 139.058C123.566 139.058 124.253 138.902 124.88 138.602C125.896 138.198 127.106 139.021 125.493 140.989C123.879 142.958 123.169 145.103 122.056 144.619C121.313 144.393 120.41 141.409 119.877 139.553Z" fill="url(#paint7_linear_5_760)"/>
<path d="M145.534 151.364C145.48 151.248 145.468 151.117 145.5 150.993C145.533 150.869 145.607 150.761 145.711 150.686C147.109 149.435 148.76 148.499 150.552 147.944C152.263 147.814 154.619 143.62 155.151 143.362C155.684 143.104 156.507 145.394 156.765 146.282C156.808 146.384 156.821 146.496 156.801 146.605C156.78 146.714 156.729 146.815 156.652 146.895C155.571 147.992 147.648 153.864 146.857 153.348C146.271 152.796 145.819 152.117 145.534 151.364Z" fill="url(#paint8_linear_5_760)"/>
<path d="M157.41 142.28C157.344 142.15 157.309 142.007 157.309 141.861C157.309 141.715 157.344 141.571 157.41 141.441C158.169 140.28 160.056 139.457 160.363 134.052C160.541 130.826 161.105 130.826 161.638 130.826C162.17 130.826 162.461 133.278 162.396 135.456C162.332 137.634 161.557 139.134 163.51 139.312C163.997 139.299 164.482 139.397 164.926 139.598C165.37 139.799 165.763 140.098 166.075 140.473C166.075 140.473 166.592 142.28 162.203 143.361C161.057 143.635 160.105 145.055 159.701 145.329C159.627 145.376 159.543 145.405 159.456 145.415C159.369 145.425 159.281 145.416 159.198 145.389C159.114 145.361 159.038 145.315 158.975 145.255C158.911 145.194 158.862 145.121 158.83 145.039L157.41 142.28Z" fill="url(#paint9_linear_5_760)"/>
<path d="M137.902 208.33C115.842 215.071 92.1953 214.505 70.4839 206.717C65.9334 202.554 62.69 196.601 63.5614 194.472C63.8841 193.665 64.0454 192.858 64.8523 192.487C67.4986 191.471 70.8873 191.89 73.0818 191.116C75.6314 190.196 71.4682 189.293 73.0818 185.647C74.6955 182.001 97.8673 173.595 106.387 175.967C114.907 178.338 125.412 185.824 126.364 187.47C127.316 189.115 123.282 188.567 120.733 190.938C118.183 193.31 119.28 195.311 121.83 196.053C124.089 196.698 135.659 199.279 138.402 202.506C138.9 203.419 139.118 204.458 139.029 205.493C138.94 206.529 138.548 207.516 137.902 208.33Z" fill="url(#paint10_linear_5_760)"/>
<defs>
<linearGradient id="paint0_linear_5_760" x1="10.6987" y1="38.9328" x2="115.792" y2="38.9328" gradientUnits="userSpaceOnUse">
<stop stop-color="#085078"/>
<stop offset="1" stop-color="#85D8CE"/>
</linearGradient>
<linearGradient id="paint1_linear_5_760" x1="99.1907" y1="74.4954" x2="136.422" y2="74.4954" gradientUnits="userSpaceOnUse">
<stop stop-color="#085078"/>
<stop offset="1" stop-color="#85D8CE"/>
</linearGradient>
<linearGradient id="paint2_linear_5_760" x1="59.2952" y1="64.3581" x2="76.8581" y2="64.3581" gradientUnits="userSpaceOnUse">
<stop stop-color="#085078"/>
<stop offset="1" stop-color="#85D8CE"/>
</linearGradient>
<linearGradient id="paint3_linear_5_760" x1="37.2151" y1="74.5307" x2="53.1619" y2="74.5307" gradientUnits="userSpaceOnUse">
<stop stop-color="#085078"/>
<stop offset="1" stop-color="#85D8CE"/>
</linearGradient>
<linearGradient id="paint4_linear_5_760" x1="55.2417" y1="84.4735" x2="77.3297" y2="84.4735" gradientUnits="userSpaceOnUse">
<stop stop-color="#085078"/>
<stop offset="1" stop-color="#85D8CE"/>
</linearGradient>
<linearGradient id="paint5_linear_5_760" x1="82.844" y1="80.1982" x2="95.2694" y2="80.1982" gradientUnits="userSpaceOnUse">
<stop stop-color="#085078"/>
<stop offset="1" stop-color="#85D8CE"/>
</linearGradient>
<linearGradient id="paint6_linear_5_760" x1="71.3782" y1="109.781" x2="136.645" y2="109.781" gradientUnits="userSpaceOnUse">
<stop stop-color="#085078"/>
<stop offset="1" stop-color="#85D8CE"/>
</linearGradient>
<linearGradient id="paint7_linear_5_760" x1="119.847" y1="141.595" x2="126.279" y2="141.595" gradientUnits="userSpaceOnUse">
<stop stop-color="#085078"/>
<stop offset="1" stop-color="#85D8CE"/>
</linearGradient>
<linearGradient id="paint8_linear_5_760" x1="145.482" y1="148.361" x2="156.81" y2="148.361" gradientUnits="userSpaceOnUse">
<stop stop-color="#085078"/>
<stop offset="1" stop-color="#85D8CE"/>
</linearGradient>
<linearGradient id="paint9_linear_5_760" x1="157.309" y1="138.122" x2="166.094" y2="138.122" gradientUnits="userSpaceOnUse">
<stop stop-color="#085078"/>
<stop offset="1" stop-color="#85D8CE"/>
</linearGradient>
<linearGradient id="paint10_linear_5_760" x1="63.4194" y1="194.277" x2="139.048" y2="194.277" gradientUnits="userSpaceOnUse">
<stop stop-color="#085078"/>
<stop offset="1" stop-color="#85D8CE"/>
</linearGradient>
</defs>
</svg>
