<svg width="213" height="213" viewBox="0 0 213 213" fill="none" xmlns="http://www.w3.org/2000/svg">
<path d="M212.999 106.426C213.009 127.363 206.85 147.839 195.292 165.295C183.734 182.751 167.289 196.414 148.012 204.575C128.735 212.736 107.481 215.034 86.9055 211.182C66.3302 207.329 47.3461 197.498 32.3253 182.916C17.3044 168.334 6.91301 149.647 2.44944 129.192C-2.01414 108.736 -0.351925 87.4181 7.22838 67.902C14.8087 48.3859 27.9709 31.5368 45.0704 19.4602C62.1699 7.38361 82.4484 0.614988 103.372 0.00011812C104.436 0.00011812 105.468 0.00011812 106.596 0.00011812C123.024 -0.0243909 139.234 3.76551 153.949 11.0715C168.664 18.3774 181.483 29 191.396 42.1029C203.351 57.8038 210.673 76.5388 212.532 96.1868C212.857 99.59 213.014 103.007 212.999 106.426Z" fill="#E0F1FA"/>
<path d="M161.426 141.852C157.186 142.642 152.188 146.496 151.253 150.802C150.318 155.107 129.682 167.153 123.508 173.28C117.333 179.408 118.574 179.73 116.108 184.713C114.705 187.486 117.22 187.551 117.72 189.55C117.849 190.034 116.995 191.969 116.511 191.969C114.611 191.434 112.802 190.619 111.142 189.55C107.918 187.631 111.142 180.633 110.272 174.78C109.401 168.926 115.511 142.997 116.124 137.45C116.737 131.903 110.53 129.226 106.548 127.678C102.566 126.13 101.615 117.487 96.9876 112.004C92.3607 106.522 98.5998 107.667 96.375 101.201C94.1502 94.7344 103.469 88.8648 101.921 85.4624C100.373 82.06 96.0203 84.4788 91.1838 82.3341C86.3473 80.1895 88.7011 75.2391 85.3156 75.8841C81.93 76.5291 73.9176 71.2561 66.824 70.9498C59.7305 70.6434 56.6513 63.5483 56.345 60.7748C56.0387 58.0013 53.8622 49.342 51.7019 49.342C49.5416 49.342 53.3141 61.0812 50.4283 60.7748C47.5426 60.4684 47.075 50.9062 44.9147 42.247C42.7544 33.5877 50.1543 30.5401 54.7973 21.897C56.0883 18.9759 56.61 15.7727 56.3127 12.5928C70.8078 4.79712 86.921 0.490498 103.372 0.0151367C103.694 0.529539 103.974 1.06875 104.21 1.62765C104.742 3.24017 106.129 4.19156 105.065 5.99758C104.001 7.8036 104.42 5.04619 96.5523 6.73933C88.685 8.43248 94.9402 13.1894 97.2939 14.1892C98.6858 14.7528 100.191 14.9794 101.687 14.8505C103.183 14.7216 104.628 14.2409 105.903 13.4474C108.257 11.7381 105.903 8.60985 108.998 8.60985C112.094 8.60985 112.916 11.0609 115.689 11.1738C118.462 11.2866 118.913 11.1738 124.733 13.2862C130.553 15.3985 132.423 16.8659 126.651 18.6236C120.88 20.3812 127.071 23.316 123.427 24.0416C119.784 24.7673 107.983 32.459 107.305 37.0224C106.628 41.5858 103.372 37.9899 99.5348 41.86C95.6979 45.73 100.293 48.9873 100.502 51.0191C100.712 53.0508 100.599 53.0347 98.0516 54.2441C95.5044 55.4535 96.246 49.2453 93.2152 45.6494C90.1843 42.0535 72.1603 47.2619 71.0963 56.5984C70.0322 65.9348 84.7352 57.1789 86.9922 58.6301C89.2492 60.0814 82.8489 66.6927 83.5905 68.3052C84.3321 69.9178 91.0387 67.886 92.9572 69.8049C94.8757 71.7238 92.6187 77.029 92.9572 79.5767C93.2958 82.1245 96.1815 82.2374 98.4708 80.5442C100.76 78.8511 103.162 81.0925 104.387 82.0278C105.613 82.963 108.708 79.5445 113.335 75.5777C117.962 71.6109 134.616 79.5929 137.066 84.2208C139.517 88.8487 149.786 87.7361 151.334 91.4449C152.059 93.1864 155.638 101.507 162.377 103.619C169.116 105.732 176.177 111.359 177.467 114.455C178.579 117.084 174.243 121.131 171.018 126.759C167.052 133.644 169.132 140.417 161.426 141.852Z" fill="url(#paint0_linear_5_761)"/>
<path d="M137.05 4.6763C133.164 8.56247 137.05 9.85248 133.825 10.9974C130.601 12.1423 127.844 7.27245 124.765 2.93478C124.347 2.36065 123.883 1.82137 123.378 1.32227C128.077 2.0878 132.72 3.16519 137.275 4.5473L137.05 4.6763Z" fill="url(#paint1_linear_5_761)"/>
<path d="M212.483 96.1548C210.738 95.2834 208.774 94.9522 206.84 95.2035C203.777 96.171 197.312 79.5137 196.184 77.4658C195.055 75.4179 195.216 72.2896 192.605 65.6783C189.993 59.0669 192.298 52.7781 191.17 47.4246C190.877 45.6619 190.937 43.8586 191.347 42.1194C203.294 57.8066 210.615 76.5237 212.483 96.1548Z" fill="url(#paint2_linear_5_761)"/>
<path d="M121.444 202.855C118.897 205.113 113.544 206.241 115.237 208.499C116.517 209.845 117.933 211.055 119.461 212.111C108.36 213.471 97.1146 213.074 86.1375 210.934C89.7165 208.725 93.4567 207.048 96.3263 207.37C103.936 208.209 111.835 205.113 116.366 202.855C120.896 200.598 123.975 200.582 121.444 202.855Z" fill="url(#paint3_linear_5_761)"/>
<defs>
<linearGradient id="paint0_linear_5_761" x1="44.5286" y1="95.9921" x2="177.645" y2="95.9921" gradientUnits="userSpaceOnUse">
<stop stop-color="#085078"/>
<stop offset="1" stop-color="#85D8CE"/>
</linearGradient>
<linearGradient id="paint1_linear_5_761" x1="123.378" y1="6.24461" x2="137.275" y2="6.24461" gradientUnits="userSpaceOnUse">
<stop stop-color="#085078"/>
<stop offset="1" stop-color="#85D8CE"/>
</linearGradient>
<linearGradient id="paint2_linear_5_761" x1="190.988" y1="69.1371" x2="212.483" y2="69.1371" gradientUnits="userSpaceOnUse">
<stop stop-color="#085078"/>
<stop offset="1" stop-color="#85D8CE"/>
</linearGradient>
<linearGradient id="paint3_linear_5_761" x1="86.1375" y1="207.029" x2="122.355" y2="207.029" gradientUnits="userSpaceOnUse">
<stop stop-color="#085078"/>
<stop offset="1" stop-color="#85D8CE"/>
</linearGradient>
</defs>
</svg>
