<svg xmlns="http://www.w3.org/2000/svg"  viewBox="0 0 100 100" width="400px" height="400px"><ellipse cx="50.019" cy="49.953" fill="#78a1d1" rx="34.981" ry="34.726"/><path fill="#6475a4" d="M17.642,61.189c0,0,3.566-9.057,10.075-7.132S40.17,63.51,40.17,63.51s5.83,6.906,10.528,9.113 c0,0,8.604,7.755,24.283,2.151c0,0-15.17,16.642-37.868,7.755C37.113,82.528,21.264,77.151,17.642,61.189z"/><path fill="#c6def0" d="M16.396,44.094c0,0,4.458-6.792,10.486-7.344c0,0,3.821-0.467,7.047,0.679s7.599,4.373,8.958,5.561 s7.047,8.321,7.047,8.321l7.684,9.042l8.575,5.392l8.151,0.679l8.915-4.967l1.656-11.802c0,0-4.33,4.925-9.934,2.717 c-5.604-2.208-12.608-11.165-12.608-11.165s-8.756-15.45-19.427-18.147c0,0-3.455-1.084-6.002-0.957 c-2.547,0.127-10.741,2.547-10.741,2.547S15.59,34.245,16.396,44.094z"/><path fill="#fdfcee" d="M40.17,16.84c0,0,11.377-0.679,18.849,4.84s8.066,6.863,10.019,9.764 c2.972,4.415,5.052,9.127,10.825,10.146c5.774,1.019,4.627-0.637,4.627-0.637s-4.84-14.094-15.877-20.717 C68.613,20.236,54.519,11.151,40.17,16.84z"/><path fill="#212121" d="M50,14c-19.87,0-36,16.13-36,36s16.13,36,36,36s36-16.13,36-36S69.87,14,50,14z M73.699,74.377 c-2.44,1.273-13.214,5.872-26.194-3.898c-0.221-0.168-0.534-0.122-0.7,0.099s-0.122,0.534,0.099,0.7 c6.475,4.874,12.449,6.282,17.192,6.282c3.017,0,5.526-0.571,7.359-1.182C65.604,81.142,58.139,84,50,84 c-14.563,0-26.97-9.14-31.817-21.998c0.578-1.663,2.467-6.128,6.332-7.005c3.947-0.896,8.865,2.073,14.605,8.827 C39.218,63.94,39.358,64,39.5,64c0.115,0,0.23-0.039,0.324-0.119c0.21-0.179,0.236-0.494,0.057-0.705 c-6.002-7.061-11.249-10.146-15.592-9.152c-3.66,0.832-5.684,4.313-6.619,6.512C16.591,57.218,16,53.679,16,50 c0-1.328,0.084-2.636,0.232-3.924c1.039-2.224,5.202-9.848,13.312-9.513c0.28,0.013,0.509-0.203,0.521-0.479 c0.012-0.275-0.202-0.509-0.478-0.521c-6.648-0.268-10.818,4.397-12.913,7.67c1.242-6.157,4.144-11.708,8.221-16.168 c2.239-1.573,7.845-4.806,14.906-3.712c0.277,0.046,0.529-0.145,0.571-0.418c0.042-0.272-0.145-0.528-0.417-0.57 c-4.905-0.761-9.089,0.425-12.058,1.804c3.352-2.87,7.267-5.098,11.561-6.496c4.652-0.575,17.334-0.765,27.985,11.689 c1.176,1.376,2.314,3.007,3.479,4.987c0.093,0.159,0.26,0.247,0.432,0.247c0.086,0,0.173-0.022,0.253-0.069 c0.238-0.14,0.317-0.446,0.178-0.684c-1.194-2.032-2.366-3.711-3.581-5.132c-8.284-9.687-17.782-11.94-24.022-12.205 C46.072,16.179,48.014,16,50,16c15.716,0,28.921,10.645,32.823,25.121c-4.468,0.781-7.934-2.672-10.089-5.788 c-0.157-0.229-0.47-0.286-0.695-0.127c-0.228,0.157-0.284,0.469-0.127,0.695c1.734,2.507,5.128,6.339,9.67,6.339 c0.481,0,0.979-0.06,1.484-0.152c0.56,2.351,0.875,4.797,0.919,7.31c-0.335,0.58-1.978,3.119-5.21,3.349 c-3.526,0.243-9.662-2.239-18.864-15.531c-5.19-7.497-10.898-12.26-16.966-14.155c-0.264-0.087-0.545,0.064-0.626,0.328 c-0.083,0.264,0.064,0.544,0.328,0.627c5.849,1.827,11.381,6.46,16.441,13.769c7.345,10.609,13.797,15.98,19.192,15.98 c0.189,0,0.378-0.007,0.565-0.02c2.519-0.179,4.18-1.538,5.126-2.628c-0.115,3.548-0.769,6.957-1.888,10.148 c-3.03,3.032-6.339,4.657-9.859,4.81c-6.083,0.28-11.743-3.847-15.417-7.345c-2.225-2.118-4.292-4.708-6.146-7.698 c-1.667-2.689-4.468-6.581-8.352-9.843c-0.211-0.179-0.527-0.15-0.705,0.062c-0.178,0.211-0.15,0.526,0.061,0.704 c3.782,3.177,6.517,6.977,8.146,9.604c1.897,3.062,4.019,5.718,6.306,7.896c3.695,3.517,9.345,7.633,15.546,7.633 c0.201,0,0.403-0.005,0.604-0.014c3.191-0.139,6.207-1.387,9.003-3.706C79.49,67.534,76.899,71.266,73.699,74.377z"/><path fill="#212121" d="M41.67,65.185c-0.188-0.2-0.505-0.211-0.707-0.023c-0.202,0.188-0.212,0.505-0.024,0.707 c1.41,1.508,2.868,2.893,4.333,4.116c0.093,0.078,0.207,0.116,0.32,0.116c0.144,0,0.286-0.062,0.384-0.18 c0.177-0.212,0.148-0.527-0.063-0.704C44.48,68.02,43.052,66.663,41.67,65.185z"/><path fill="#212121" d="M32.621,36.015c-0.268-0.067-0.54,0.096-0.606,0.364c-0.067,0.268,0.096,0.539,0.364,0.606 c2.416,0.604,4.812,1.719,7.122,3.313c0.087,0.061,0.186,0.089,0.284,0.089c0.159,0,0.315-0.075,0.412-0.216 c0.157-0.228,0.1-0.539-0.127-0.695C37.66,37.813,35.154,36.648,32.621,36.015z"/></svg>